<svg width="32" height="32" viewBox="0 0 32 32" fill="none" xmlns="http://www.w3.org/2000/svg">
  <defs>
    <linearGradient id="heartGradient" x1="0%" y1="0%" x2="100%" y2="100%">
      <stop offset="0%" style="stop-color:#ff4d6d;stop-opacity:1" />
      <stop offset="50%" style="stop-color:#dc143c;stop-opacity:1" />
      <stop offset="100%" style="stop-color:#b91c1c;stop-opacity:1" />
    </linearGradient>
    <linearGradient id="shieldGradient" x1="0%" y1="0%" x2="100%" y2="100%">
      <stop offset="0%" style="stop-color:#3b82f6;stop-opacity:1" />
      <stop offset="100%" style="stop-color:#1d4ed8;stop-opacity:1" />
    </linearGradient>
    <filter id="glow" x="-50%" y="-50%" width="200%" height="200%">
      <feGaussianBlur stdDeviation="0.8" result="coloredBlur"/>
      <feMerge>
        <feMergeNode in="coloredBlur"/>
        <feMergeNode in="SourceGraphic"/>
      </feMerge>
    </filter>
    <filter id="innerShadow" x="-50%" y="-50%" width="200%" height="200%">
      <feOffset dx="0" dy="1"/>
      <feGaussianBlur stdDeviation="1" result="offset-blur"/>
      <feComposite operator="out" in="SourceGraphic" in2="offset-blur" result="inverse"/>
      <feFlood flood-color="#000" flood-opacity="0.3" result="color"/>
      <feComposite operator="in" in="color" in2="inverse" result="shadow"/>
      <feComposite operator="over" in="shadow" in2="SourceGraphic"/>
    </filter>
  </defs>
  
  <!-- Background circle with gradient -->
  <circle cx="16" cy="16" r="15" fill="#0a0a0f" stroke="url(#heartGradient)" stroke-width="1.5"/>
  
  <!-- Shield shape background -->
  <path d="M16 5 L25 8 L25 15 C25 20.5 21 24.5 16 26.5 C11 24.5 7 20.5 7 15 L7 8 Z" 
        fill="url(#shieldGradient)" opacity="0.25" filter="url(#glow)"/>
  
  <!-- Heart shape -->
  <path d="M16 23 C12.5 19.5 9 16 9 12.5 C9 10 10.5 8 13 8 C14.3 8 15.3 8.8 16 9.8 C16.7 8.8 17.7 8 19 8 C21.5 8 23 10 23 12.5 C23 16 19.5 19.5 16 23Z" 
        fill="url(#heartGradient)" filter="url(#glow)"/>
  
  <!-- Checkmark on heart -->
  <path d="M12.5 13.5 L15 16 L19.5 11" 
        stroke="white" stroke-width="2.5" stroke-linecap="round" stroke-linejoin="round" fill="none" filter="url(#innerShadow)"/>
  
  <!-- Small sparkle accents -->
  <circle cx="8" cy="10" r="0.8" fill="#fff" opacity="0.6"/>
  <circle cx="24" cy="12" r="0.6" fill="#fff" opacity="0.5"/>
</svg>
